<svg width="43" height="43" viewBox="0 0 43 43" fill="none" xmlns="http://www.w3.org/2000/svg">
<path d="M21.5 0C9.62536 0 0 9.62536 0 21.5C0 33.3746 9.62536 43 21.5 43C33.3746 43 43 33.3746 43 21.5C43 9.62536 33.3746 0 21.5 0ZM21.5 39.6406C11.4809 39.6406 3.35938 31.5191 3.35938 21.5C3.35938 11.4809 11.4809 3.35938 21.5 3.35938C31.5191 3.35938 39.6406 11.4809 39.6406 21.5C39.6406 31.5191 31.5191 39.6406 21.5 39.6406Z" fill="#00FF29"/>
<path d="M29.702 19.9782L16.7538 12.4537C15.3392 11.6164 13.9834 12.2909 13.9834 13.9523V29.0498C13.9834 30.7085 15.3392 31.3843 16.7538 30.5458L29.5997 23.0226C31.0195 22.1854 31.1206 20.8154 29.702 19.9782Z" fill="#00FF29"/>
</svg>
